<svg width="80" height="84" viewBox="0 0 80 84" fill="none" xmlns="http://www.w3.org/2000/svg">
<path d="M33.3333 54.1667H41.6667L42.2917 48.9583C42.8472 48.75 43.3507 48.5069 43.8021 48.2292C44.2535 47.9514 44.6528 47.6389 45 47.2917L49.7917 49.375L53.9583 42.2917L49.7917 39.1667C49.9306 38.6111 50 38.0556 50 37.5C50 36.9444 49.9306 36.3889 49.7917 35.8333L53.9583 32.7083L49.7917 25.625L45 27.7083C44.6528 27.3611 44.2535 27.0486 43.8021 26.7708C43.3507 26.4931 42.8472 26.25 42.2917 26.0417L41.6667 20.8333H33.3333L32.7083 26.0417C32.1528 26.25 31.6493 26.4931 31.1979 26.7708C30.7465 27.0486 30.3472 27.3611 30 27.7083L25.2083 25.625L21.0417 32.7083L25.2083 35.8333C25.0694 36.3889 25 36.9444 25 37.5C25 38.0556 25.0694 38.6111 25.2083 39.1667L21.0417 42.2917L25.2083 49.375L30 47.2917C30.3472 47.6389 30.7465 47.9514 31.1979 48.2292C31.6493 48.5069 32.1528 48.75 32.7083 48.9583L33.3333 54.1667ZM37.5 43.75C35.7639 43.75 34.2882 43.1424 33.0729 41.9271C31.8576 40.7118 31.25 39.2361 31.25 37.5C31.25 35.7639 31.8576 34.2882 33.0729 33.0729C34.2882 31.8576 35.7639 31.25 37.5 31.25C39.2361 31.25 40.7118 31.8576 41.9271 33.0729C43.1424 34.2882 43.75 35.7639 43.75 37.5C43.75 39.2361 43.1424 40.7118 41.9271 41.9271C40.7118 43.1424 39.2361 43.75 37.5 43.75ZM12.5 83.3333V65.4167C8.54167 61.8056 5.46875 57.5868 3.28125 52.7604C1.09375 47.934 0 42.8472 0 37.5C0 27.0833 3.64583 18.2292 10.9375 10.9375C18.2292 3.64583 27.0833 0 37.5 0C46.1806 0 53.8715 2.55208 60.5729 7.65625C67.2743 12.7604 71.632 19.4097 73.6458 27.6042L79.0625 48.9583C79.4097 50.2778 79.1667 51.4757 78.3333 52.5521C77.5 53.6285 76.3889 54.1667 75 54.1667H66.6667V66.6667C66.6667 68.9583 65.8507 70.9201 64.2188 72.5521C62.5868 74.184 60.625 75 58.3333 75H50V83.3333H12.5Z" fill="#630ED4"/>
</svg>
